<svg xmlns="http://www.w3.org/2000/svg" width="1500" height="650" viewBox="0 0 1500 650">
<rect width="100%" height="100%" fill="#f8fafc"/>
<text x="28.0" y="42.0" font-family="Inter, Arial, sans-serif" font-size="24" font-weight="700" fill="#111827">Canada 2025: FastF1 traces vs the oracle circuit line</text>
<text x="28.0" y="68.0" font-family="Inter, Arial, sans-serif" font-size="14" font-weight="400" fill="#475569">Gray is the oracle GPS line. Color is a FastF1 lap projected with one clean RUS lap 63 transform.</text>
<rect x="26" y="92" width="448" height="500" rx="10" fill="#ffffff" stroke="#cbd5e1"/>
<text x="46.0" y="126.0" font-family="Inter, Arial, sans-serif" font-size="17" font-weight="700" fill="#111827">Fastest valid lap</text>
<text x="46.0" y="148.0" font-family="Inter, Arial, sans-serif" font-size="13" font-weight="400" fill="#475569">RUS lap 63, race fastest lap</text>
<polyline points="275.0,370.8 277.8,383.9 279.9,393.4 281.0,400.5 281.2,406.4 279.4,422.1 279.7,424.0 281.0,425.1 285.6,427.2 286.5,427.9 287.0,429.2 286.8,430.6 286.2,432.0 284.9,433.0 283.3,433.7 281.2,433.7 278.9,433.2 273.5,431.6 269.7,430.4 266.2,428.4 262.8,426.2 254.9,419.5 250.3,415.1 249.4,413.7 249.2,412.6 249.2,411.5 250.1,409.0 250.3,407.5 250.2,406.2 249.6,405.1 240.7,394.3 239.1,392.9 236.1,390.8 234.3,389.3 232.3,386.7 231.2,383.9 230.4,381.0 230.2,378.7 230.2,361.7 230.2,360.3 229.6,359.1 228.5,358.3 226.6,357.8 224.0,358.5 222.6,358.6 220.7,358.1 219.2,357.2 218.1,356.1 217.1,354.8 216.5,353.6 215.7,351.2 215.0,348.3 214.2,344.7 214.1,341.6 213.0,328.6 213.1,321.6 213.3,315.9 213.8,309.7 214.4,304.8 215.1,300.9 219.7,282.4 220.5,280.7 221.6,280.0 222.7,279.8 224.4,279.6 225.7,279.2 227.0,278.5 228.4,277.0 229.4,275.3 230.3,273.1 234.9,254.6 236.7,244.5 237.3,237.5 237.6,230.3 237.5,227.9 237.2,225.4 233.9,209.0 233.8,208.0 233.9,207.1 234.7,206.3 236.1,206.0 237.1,206.3 237.7,207.1 237.9,207.7 238.3,211.3 238.9,217.0 239.1,218.8 239.8,220.9 242.2,225.8 244.4,230.2 255.2,258.0 256.4,261.7 272.4,338.2 273.1,341.4 272.9,342.5 272.2,343.3 270.9,343.8 270.1,344.6 269.8,345.5 269.8,346.7 272.7,360.0 275.0,370.8" fill="none" stroke="#94a3b8" stroke-width="3.0" stroke-linejoin="round" stroke-linecap="round" opacity="0.85"/>
<polyline points="280.9,396.4 280.9,408.1 280.4,411.6 280.1,414.4 279.8,416.8 279.6,419.5 279.6,420.7 279.9,422.6 280.2,423.4 280.3,423.6 280.9,424.5 281.7,425.4 282.6,426.2 283.3,426.6 283.8,427.0 284.6,427.4 285.3,427.9 286.3,428.7 286.6,429.5 286.6,430.0 286.5,430.9 286.3,431.4 286.2,431.8 285.7,432.5 285.4,432.9 285.0,433.3 284.3,433.6 283.7,433.8 282.4,434.0 281.4,434.0 280.3,434.0 278.9,433.8 277.9,433.7 276.3,433.3 275.8,433.1 274.9,432.8 273.0,432.2 271.9,431.8 270.5,431.2 269.7,430.9 268.5,430.2 265.7,428.6 264.8,428.0 263.3,426.9 262.4,426.2 261.0,425.1 259.5,423.9 258.4,423.0 257.1,421.9 255.0,420.2 253.3,418.7 252.0,417.5 250.8,416.2 250.4,415.6 250.0,414.8 249.6,413.8 249.5,412.3 249.6,411.3 249.8,409.8 249.1,405.3 248.5,404.3 247.8,403.4 246.6,401.7 245.7,400.7 244.5,399.1 243.6,398.0 242.6,396.8 240.9,395.1 239.2,393.5 237.4,392.1 236.4,391.2 234.1,389.1 232.3,386.6 231.3,384.2 230.3,380.6 230.1,378.5 230.0,376.1 230.1,373.9 230.2,371.7 230.3,370.2 230.4,368.8 230.6,366.3 230.6,365.3 230.4,363.0 230.0,361.5 229.7,360.8 229.2,360.0 228.2,359.0 227.4,358.6 226.2,358.4 225.5,358.4 224.9,358.5 224.0,358.5 223.3,358.6 222.1,358.5 220.9,358.2 219.5,357.4 218.8,356.9 218.1,356.2 217.4,355.3 216.9,354.7 216.5,353.9 215.7,352.2 215.4,351.3 214.9,349.2 214.7,348.2 214.4,345.9 214.3,344.6 214.0,341.7 213.9,340.0 213.7,338.3 213.5,335.8 213.4,334.3 213.3,332.4 213.2,329.5 213.1,327.7 213.1,324.9 213.1,322.0 213.1,320.4 213.1,318.7 213.2,316.5 213.3,315.2 213.5,313.2 213.6,311.1 214.1,307.1 214.5,304.5 214.8,302.5 215.6,298.7 215.7,298.2 216.5,295.0 217.1,292.8 217.9,289.4 218.4,287.6 218.7,286.2 219.1,284.7 219.4,283.6 220.0,282.2 220.3,281.5 221.2,280.5 222.1,280.1 222.8,279.9 224.0,279.6 225.8,278.9 226.4,278.5 228.4,276.7 229.1,275.8 229.7,274.8 230.6,272.9 230.9,271.8 231.3,270.5 231.9,268.4 232.4,266.4 232.8,265.3 233.3,263.4 234.0,260.1 234.4,258.0 234.9,255.9 235.1,254.5 235.6,251.8 235.9,249.7 236.5,245.9 236.6,244.8 236.8,242.5 237.0,239.8 237.2,237.0 237.2,235.3 237.3,232.5 237.3,231.3 237.2,228.9 237.0,227.2 236.8,225.3 236.2,222.1 235.7,219.7 235.3,217.7 234.6,214.5 234.3,213.0 234.1,212.0 233.8,210.1 233.8,209.4 233.8,208.6 234.0,207.7 234.7,206.8 235.0,206.6 235.9,206.4 236.4,206.4 236.9,206.6 237.2,206.8 237.4,206.9 237.7,207.3 238.2,208.1 238.3,208.4 238.6,209.1 238.8,210.0 239.1,211.3 239.2,212.0 239.3,212.6 239.4,214.3 239.5,215.9 239.5,216.3 239.6,217.3 240.1,219.7 240.4,221.1 241.0,222.6 241.6,224.4 242.2,225.9 243.0,227.8 244.0,230.4 244.7,232.0 245.4,233.7 246.2,235.7 247.6,239.1 248.3,240.8 249.6,244.0 250.6,246.3 251.5,248.7 252.3,250.7 253.3,253.5 253.8,254.9 254.5,256.7 255.2,259.1 255.7,260.7 256.6,264.0 257.0,265.3 257.4,267.0 258.3,270.8 259.0,273.7 259.1,274.5 259.7,277.2 260.5,280.9 261.3,284.4 262.0,287.5 262.5,289.9 262.9,291.9 263.2,293.4 263.8,296.2 264.2,297.8 264.6,299.8 265.2,302.6 265.8,305.4 266.3,308.0 267.1,311.5 267.6,313.9 268.4,317.7 269.4,322.2 270.0,325.0 270.4,327.0 272.1,334.8 272.4,336.3 272.8,338.5 272.9,339.8 272.8,341.4 272.6,342.0 272.0,343.3 271.4,344.1 270.8,345.3 270.5,346.1 270.3,347.3 270.3,349.4 270.4,350.5 270.5,351.4 270.8,353.3 271.1,354.6 271.4,355.9 271.7,356.9 272.1,358.4 272.4,359.6 272.7,360.8 273.1,362.2 273.9,365.4 274.6,368.3 274.7,368.8 275.1,370.5 275.5,372.0 276.2,375.0 276.6,376.5 277.2,379.1 277.5,380.5 278.1,382.8 278.8,385.6 278.9,386.1 279.9,390.5 280.2,392.2 280.5,393.6" fill="none" stroke="#059669" stroke-width="3.2" stroke-linejoin="round" stroke-linecap="round" opacity="0.95"/>
<circle cx="280.9" cy="396.4" r="4.5" fill="#111827"/>
<circle cx="280.5" cy="393.6" r="4.5" fill="#64748b"/>
<text x="46.0" y="484.0" font-family="Inter, Arial, sans-serif" font-size="13" font-weight="400" fill="#111827">time: 74.119s</text>
<text x="46.0" y="508.0" font-family="Inter, Arial, sans-serif" font-size="13" font-weight="400" fill="#111827">length: 4312.0 m (-1.2%)</text>
<text x="46.0" y="532.0" font-family="Inter, Arial, sans-serif" font-size="13" font-weight="400" fill="#111827">fit: RMSE 3.9 m, p95 6.6 m</text>
<text x="46.0" y="556.0" font-family="Inter, Arial, sans-serif" font-size="13" font-weight="400" fill="#059669">reason: compliant</text>
<rect x="500" y="92" width="448" height="500" rx="10" fill="#ffffff" stroke="#cbd5e1"/>
<text x="520.0" y="126.0" font-family="Inter, Arial, sans-serif" font-size="17" font-weight="700" fill="#111827">Boundary seam repaired</text>
<text x="520.0" y="148.0" font-family="Inter, Arial, sans-serif" font-size="13" font-weight="400" fill="#475569">VER lap 2, recovered to one clean</text>
<text x="520.0" y="164.0" font-family="Inter, Arial, sans-serif" font-size="13" font-weight="400" fill="#475569">loop before shape fit</text>
<polyline points="749.0,370.8 751.8,383.8 753.9,393.4 755.0,400.5 755.2,406.4 753.4,422.1 753.7,423.9 755.0,425.1 759.6,427.2 760.5,427.9 761.0,429.2 760.8,430.6 760.2,432.0 758.9,433.0 757.3,433.7 755.2,433.7 752.9,433.1 747.4,431.6 743.7,430.3 740.2,428.4 736.8,426.2 728.9,419.5 724.3,415.1 723.4,413.7 723.2,412.6 723.2,411.5 724.1,409.0 724.3,407.4 724.2,406.2 723.6,405.1 714.7,394.2 713.1,392.9 710.1,390.8 708.3,389.3 706.3,386.6 705.2,383.8 704.4,381.0 704.2,378.7 704.2,361.7 704.2,360.3 703.6,359.1 702.5,358.3 700.6,357.8 698.0,358.5 696.6,358.6 694.7,358.1 693.2,357.1 692.1,356.1 691.1,354.8 690.5,353.6 689.7,351.2 689.0,348.3 688.2,344.7 688.1,341.6 687.0,328.6 687.1,321.6 687.3,315.9 687.8,309.7 688.4,304.8 689.1,300.9 693.7,282.4 694.5,280.7 695.6,280.0 696.7,279.8 698.4,279.6 699.7,279.2 701.0,278.5 702.4,277.0 703.4,275.3 704.3,273.0 708.9,254.6 710.7,244.5 711.3,237.5 711.6,230.3 711.5,227.9 711.2,225.4 707.9,209.0 707.8,208.0 707.9,207.1 708.7,206.3 710.1,206.0 711.1,206.3 711.7,207.1 711.9,207.7 712.3,211.3 712.9,217.0 713.1,218.8 713.8,220.9 716.2,225.8 718.4,230.2 729.2,258.0 730.4,261.7 746.4,338.2 747.1,341.4 746.9,342.4 746.2,343.3 744.9,343.8 744.1,344.6 743.8,345.5 743.8,346.7 746.7,359.9 749.0,370.8" fill="none" stroke="#94a3b8" stroke-width="3.0" stroke-linejoin="round" stroke-linecap="round" opacity="0.85"/>
<polyline points="746.7,337.9 746.8,338.2 747.1,340.7 746.9,341.1 746.8,341.7 746.2,343.0 745.4,344.2 744.7,345.5 744.6,346.0 744.4,347.0 744.3,348.1 744.3,348.8 744.4,350.0 744.5,351.1 745.1,354.5 745.3,355.3 745.6,356.4 745.9,357.7 746.5,359.9 747.2,362.5 747.6,364.0 748.0,365.7 748.4,367.3 748.8,368.9 749.2,370.6 749.5,372.0 749.9,373.7 750.4,376.0 751.1,378.8 752.1,383.0 752.3,383.7 752.8,385.9 754.0,390.9 754.6,394.0 754.8,395.8 755.1,398.2 755.2,399.9 755.2,403.5 755.1,405.9 755.0,407.4 754.7,409.5 754.5,411.1 754.2,413.1 754.1,414.4 753.9,415.9 753.6,418.5 753.6,420.4 753.6,420.8 753.8,422.4 754.3,423.7 755.1,424.8 755.7,425.4 756.4,426.0 757.5,426.8 757.8,426.9 758.3,427.2 759.2,427.7 759.7,428.1 760.4,428.9 760.5,429.3 760.4,431.4 760.2,431.9 759.7,432.6 759.2,433.1 758.7,433.5 758.1,433.8 757.2,433.9 756.0,434.0 754.9,434.0 754.1,433.9 752.7,433.8 750.6,433.3 749.1,432.9 747.5,432.3 746.0,431.8 744.9,431.4 740.4,429.0 738.1,427.4 737.1,426.7 735.8,425.7 734.2,424.5 733.0,423.5 731.9,422.6 726.5,418.0 725.7,417.2 725.2,416.6 724.1,415.1 723.8,414.5 723.4,412.5 723.7,410.8 723.8,409.6 723.8,408.4 723.7,407.6 723.5,406.5 723.1,405.4 722.3,404.1 721.7,403.2 719.4,400.2 718.0,398.5 716.4,396.5 715.1,395.2 713.7,394.0 712.4,392.8 710.8,391.6 709.9,390.8 708.7,389.7 707.0,387.7 705.8,385.5 705.4,384.2 704.3,380.6 704.1,379.2 704.0,376.2 704.0,374.7 704.1,373.4 704.3,370.3 704.5,367.9 704.6,365.7 704.5,364.5 704.4,363.4 704.1,361.9 703.7,360.8 703.2,360.0 702.6,359.4 702.2,359.1 701.1,358.6 699.1,358.4 698.5,358.5 697.5,358.5 696.1,358.5 695.5,358.4 693.7,357.6 692.6,356.7 691.3,355.2 690.5,354.0 689.7,352.2 689.3,351.0 688.9,349.3 688.6,347.0 688.4,345.7 688.2,343.5 688.0,341.2 687.9,340.2 687.7,338.4 687.5,335.9 687.4,332.9 687.2,329.5 687.1,326.4 687.1,324.9 687.0,323.4 687.0,321.9 687.1,319.2 687.3,315.7 687.4,313.6 687.6,311.6 689.4,299.3 690.1,296.7 690.6,294.6 691.0,293.0 691.4,291.6 692.1,288.9 692.5,286.9 692.9,285.5 693.1,284.6 693.6,283.1 694.0,282.2 694.3,281.5 695.8,280.2 696.9,279.9 697.7,279.7 700.9,278.3 701.6,277.6 702.3,276.8 703.0,276.0 703.5,275.3 704.6,272.8 704.9,272.0 705.3,270.7 705.9,268.4 706.0,267.9 706.4,266.4 707.0,264.4 707.3,263.3 708.1,259.9 708.5,257.6 708.9,255.5 709.4,253.1 709.8,250.5 710.3,247.4 710.5,246.0 710.7,243.7 710.8,242.7 711.0,240.2 711.1,238.2 711.2,232.1 711.2,230.1 711.2,228.7 711.0,226.7 710.5,223.8 710.2,222.2 709.9,220.8 709.6,219.5 709.1,217.0 708.9,216.0 708.7,214.9 708.4,213.5 708.2,212.3 708.0,211.5 707.9,210.5 707.8,209.5 707.8,209.1 707.8,208.7 707.9,208.0 708.1,207.6 708.3,207.1 708.5,207.0 709.2,206.5 709.5,206.4 710.0,206.4 711.4,206.9 711.6,207.1 711.9,207.5 712.2,208.0 712.5,208.9 712.8,209.8 713.1,211.1 713.2,212.3 713.4,213.6 713.4,214.6 713.4,215.0 713.6,216.9 713.9,219.1 714.4,220.9 715.1,223.1 716.2,225.9 717.3,228.6 718.0,230.4 721.3,238.3 722.3,240.6 722.9,242.3 723.5,243.6 724.7,246.6 725.3,248.3 726.1,250.3 726.9,252.4 727.8,254.9 728.5,256.9 728.9,258.1 730.7,264.1 731.2,266.2 731.9,268.9 732.4,271.1 733.4,275.7 733.9,277.7 734.3,279.9 734.6,281.3 735.4,285.0 736.1,287.9 736.7,290.8 737.3,293.7 738.3,298.3 739.0,301.7 739.1,302.3 739.7,305.1 741.0,311.1 741.7,314.6 742.3,317.2 743.2,321.2 743.6,323.4 744.6,327.5 745.0,329.5 745.7,332.9 745.9,333.9 746.2,335.1 746.6,337.3 746.8,338.4 746.9,339.1 747.0,340.9 746.6,342.1 746.1,343.1 745.7,343.8" fill="none" stroke="#2563eb" stroke-width="3.2" stroke-linejoin="round" stroke-linecap="round" opacity="0.95"/>
<circle cx="746.7" cy="337.9" r="4.5" fill="#111827"/>
<circle cx="745.7" cy="343.8" r="4.5" fill="#64748b"/>
<text x="520.0" y="484.0" font-family="Inter, Arial, sans-serif" font-size="13" font-weight="400" fill="#111827">time: 76.418s</text>
<text x="520.0" y="508.0" font-family="Inter, Arial, sans-serif" font-size="13" font-weight="400" fill="#111827">length: 4415.1 m (+1.1%)</text>
<text x="520.0" y="532.0" font-family="Inter, Arial, sans-serif" font-size="13" font-weight="400" fill="#111827">fit: RMSE 28.2 m, p95 48.2 m</text>
<text x="520.0" y="556.0" font-family="Inter, Arial, sans-serif" font-size="13" font-weight="400" fill="#2563eb">reason: compliant after seam repair</text>
<text x="520.0" y="580.0" font-family="Inter, Arial, sans-serif" font-size="12" font-weight="400" fill="#475569">raw 5012.9 m -&gt; 4415.1 m after seam trim</text>
<text x="520.0" y="595.0" font-family="Inter, Arial, sans-serif" font-size="12" font-weight="400" fill="#475569">fit RMSE 28.2 m</text>
<rect x="974" y="92" width="448" height="500" rx="10" fill="#ffffff" stroke="#cbd5e1"/>
<text x="994.0" y="126.0" font-family="Inter, Arial, sans-serif" font-size="17" font-weight="700" fill="#111827">Pit lap with timing warning</text>
<text x="994.0" y="148.0" font-family="Inter, Arial, sans-serif" font-size="13" font-weight="400" fill="#475569">RUS lap 13, projected with clean-lap transform</text>
<polyline points="1223.0,370.8 1225.8,383.9 1227.9,393.4 1229.0,400.5 1229.2,406.4 1227.4,422.1 1227.7,424.0 1229.0,425.1 1233.6,427.2 1234.5,427.9 1235.0,429.2 1234.8,430.6 1234.2,432.0 1232.9,433.0 1231.3,433.7 1229.2,433.7 1226.9,433.2 1221.5,431.6 1217.7,430.4 1214.2,428.4 1210.8,426.2 1202.9,419.5 1198.3,415.1 1197.4,413.7 1197.2,412.6 1197.2,411.5 1198.1,409.0 1198.3,407.5 1198.2,406.2 1197.6,405.1 1188.7,394.3 1187.1,392.9 1184.1,390.8 1182.3,389.3 1180.3,386.7 1179.2,383.9 1178.4,381.0 1178.2,378.7 1178.2,361.7 1178.2,360.3 1177.6,359.1 1176.5,358.3 1174.6,357.8 1172.0,358.5 1170.6,358.6 1168.7,358.1 1167.2,357.2 1166.1,356.1 1165.1,354.8 1164.5,353.6 1163.7,351.2 1163.0,348.3 1162.2,344.7 1162.1,341.6 1161.0,328.6 1161.1,321.6 1161.3,315.9 1161.8,309.7 1162.4,304.8 1163.1,300.9 1167.7,282.4 1168.5,280.7 1169.6,280.0 1170.7,279.8 1172.4,279.6 1173.7,279.2 1175.0,278.5 1176.4,277.0 1177.4,275.3 1178.3,273.1 1182.9,254.6 1184.7,244.5 1185.3,237.5 1185.6,230.3 1185.5,227.9 1185.2,225.4 1181.9,209.0 1181.8,208.0 1181.9,207.1 1182.7,206.3 1184.1,206.0 1185.1,206.3 1185.7,207.1 1185.9,207.7 1186.3,211.3 1186.9,217.0 1187.1,218.8 1187.8,220.9 1190.2,225.8 1192.4,230.2 1203.2,258.0 1204.4,261.7 1220.4,338.2 1221.1,341.4 1220.9,342.5 1220.2,343.3 1218.9,343.8 1218.1,344.6 1217.8,345.5 1217.8,346.7 1220.7,360.0 1223.0,370.8" fill="none" stroke="#94a3b8" stroke-width="3.0" stroke-linejoin="round" stroke-linecap="round" opacity="0.85"/>
<polyline points="1229.0,396.9 1229.2,399.9 1229.2,403.7 1229.0,406.9 1228.8,408.3 1228.6,410.4 1228.2,413.4 1227.9,415.3 1227.7,417.2 1227.6,418.8 1227.6,421.2 1227.7,421.8 1228.0,422.8 1228.4,423.9 1229.5,425.3 1230.4,426.1 1231.3,426.7 1232.3,427.3 1232.6,427.4 1233.5,428.0 1234.0,428.4 1234.4,428.9 1234.5,429.1 1234.6,430.3 1234.5,430.8 1234.4,431.2 1234.1,432.0 1233.8,432.4 1233.5,432.9 1233.1,433.2 1232.6,433.5 1231.5,433.9 1230.8,434.0 1230.1,434.0 1229.3,434.0 1227.7,433.9 1226.7,433.8 1225.6,433.6 1224.6,433.4 1223.3,432.9 1222.2,432.6 1220.7,432.0 1219.2,431.5 1218.0,431.0 1217.1,430.5 1216.2,430.1 1214.2,428.9 1212.4,427.7 1211.5,427.1 1209.9,425.9 1208.6,424.8 1207.6,424.0 1206.0,422.7 1203.7,420.7 1202.5,419.7 1200.5,418.0 1199.5,416.9 1198.1,415.1 1197.6,413.9 1197.5,413.6 1197.4,412.8 1197.6,411.3 1197.8,409.9 1197.8,409.1 1196.5,404.4 1196.1,403.8 1195.0,402.3 1193.6,400.4 1192.4,398.9 1191.7,398.1 1190.9,397.1 1188.9,395.0 1187.9,394.1 1186.1,392.6 1184.1,391.0 1182.6,389.6 1180.6,387.1 1180.0,385.8 1178.9,382.9 1178.4,381.2 1178.1,378.7 1178.0,375.1 1178.1,373.3 1178.2,371.1 1178.4,368.8 1178.5,367.3 1178.6,365.6 1178.5,363.6 1178.3,362.6 1177.9,361.2 1177.5,360.4 1177.1,359.8 1176.5,359.3 1175.3,358.6 1174.1,358.4 1173.6,358.4 1172.5,358.5 1171.8,358.5 1170.5,358.5 1168.8,358.2 1167.4,357.4 1167.3,357.3 1166.3,356.5 1165.0,354.8 1164.7,354.3 1164.0,353.0 1163.2,350.7 1163.0,349.5 1162.7,348.2 1162.5,346.2 1162.3,344.8 1162.1,343.2 1161.9,341.0 1161.9,340.4 1161.8,339.2 1161.7,337.5 1161.5,335.1 1161.4,333.2 1161.3,331.0 1161.2,328.9 1161.1,327.3 1161.1,324.4 1161.1,321.6 1161.1,319.2 1161.2,317.3 1161.3,314.6 1161.5,312.4 1161.7,310.3 1162.1,307.6 1162.3,306.1 1162.5,304.4 1163.2,300.5 1163.7,298.3 1163.9,297.2 1164.8,293.9 1165.3,291.9 1165.8,290.1 1166.1,288.6 1166.6,286.8 1167.0,284.9 1167.6,283.2 1167.8,282.5 1168.2,281.7 1168.8,280.9 1169.3,280.4 1170.3,280.0 1170.9,279.9 1171.8,279.7 1172.6,279.4 1173.4,279.1 1174.3,278.6 1174.8,278.3 1176.2,277.0 1176.8,276.3 1177.6,274.9 1177.9,274.5 1178.4,273.2 1179.2,271.0 1179.7,269.4 1180.1,267.8 1180.4,266.4 1180.8,265.1 1181.1,264.0 1181.5,262.2 1182.3,258.9 1182.7,257.0 1183.2,254.3 1183.4,252.6 1184.5,245.8 1184.7,244.1 1184.9,241.1 1185.1,239.2 1185.2,236.2 1185.2,235.1 1185.2,231.9 1185.2,229.3 1185.1,227.6 1184.8,225.4 1184.0,221.1 1183.7,219.7 1183.3,217.8 1182.9,216.0 1182.6,214.6 1182.4,213.3 1182.1,211.9 1181.9,210.7 1181.8,209.8 1181.8,209.1 1181.8,208.3 1182.1,207.6 1182.8,206.8 1183.1,206.6 1183.5,206.4 1184.1,206.4 1184.3,206.4 1184.7,206.5 1185.1,206.7 1185.4,207.0 1185.7,207.2 1186.0,207.7 1186.1,208.0 1186.3,208.5 1186.6,209.1 1186.6,209.3 1186.9,210.1 1187.1,211.2 1187.2,212.1 1187.3,213.3 1187.4,214.6 1187.5,216.1 1187.6,217.1 1187.8,218.3 1188.0,219.5 1188.3,220.5 1188.9,222.3 1189.2,223.3 1189.5,223.9 1190.0,225.5 1190.5,226.6 1191.6,229.3 1192.2,230.9 1193.1,233.0 1194.9,237.5 1195.5,238.7 1195.9,239.8 1197.4,243.3 1198.5,246.2 1199.0,247.6 1199.5,248.7 1200.2,250.6 1201.2,253.3 1201.7,254.7 1202.2,255.9 1203.2,259.1 1203.8,260.9 1204.7,264.4 1205.1,265.9 1205.5,267.2 1208.0,278.1 1208.9,282.5 1209.6,285.8 1210.0,287.8 1210.5,289.9 1211.2,293.0 1211.5,294.6 1212.0,297.1 1212.4,298.9 1213.2,302.4 1213.4,303.8 1214.0,306.4 1214.7,309.7 1215.2,312.1 1216.0,316.1 1216.5,318.0 1217.2,321.4 1217.8,324.0 1218.2,325.7 1218.6,327.9 1219.2,330.6 1219.8,333.1 1220.2,335.2 1220.7,337.8 1220.9,341.0 1220.4,342.6 1219.8,343.7 1218.9,345.1 1220.8,340.9 1221.1,342.5 1221.2,342.7 1221.4,343.5 1221.6,344.5 1221.7,345.2 1221.8,345.7 1222.7,349.7 1222.9,350.7 1223.2,352.3 1223.2,352.8 1223.2,353.5 1223.2,354.5 1223.0,355.0 1222.6,356.1 1222.4,356.7 1222.3,357.1 1222.1,357.7 1222.0,358.5 1222.1,359.2 1222.2,359.8 1222.3,360.5 1222.5,361.3 1222.6,361.8 1222.7,362.3 1222.8,362.8 1223.0,363.9 1223.1,364.4 1223.2,364.9 1223.3,365.3 1223.4,365.5 1223.5,365.9 1223.6,366.4 1223.7,366.9 1223.9,368.0 1224.0,368.4 1224.2,369.3 1224.3,369.7 1224.5,371.0 1224.7,371.6 1224.8,372.4 1225.0,373.0 1225.1,373.6 1225.2,374.3 1225.4,375.1 1225.6,375.8 1225.8,377.0 1225.9,377.6 1226.2,378.7 1226.3,379.1 1226.4,379.6 1226.5,380.3 1226.5,380.4 1226.6,380.8 1226.7,381.0 1226.7,381.2 1226.8,381.5 1226.8,381.6 1226.8,381.7 1226.8,381.8 1226.9,381.8 1226.9,382.1 1226.9,382.2 1227.0,382.5 1227.0,382.7 1227.1,382.9 1227.2,383.6 1227.3,383.8 1227.4,384.3 1227.5,384.9 1227.6,385.3 1227.7,386.0 1227.8,386.3 1227.9,386.8 1228.0,387.3 1228.2,388.0 1228.3,388.6 1228.4,388.9 1228.4,389.3 1228.6,390.1 1228.8,390.9 1229.0,391.9 1229.1,392.4 1229.3,393.3 1229.4,393.7 1229.4,394.0" fill="none" stroke="#f97316" stroke-width="3.2" stroke-linejoin="round" stroke-linecap="round" opacity="0.95"/>
<circle cx="1229.0" cy="396.9" r="4.5" fill="#111827"/>
<circle cx="1229.4" cy="394.0" r="4.5" fill="#64748b"/>
<text x="994.0" y="484.0" font-family="Inter, Arial, sans-serif" font-size="13" font-weight="400" fill="#111827">time: 92.351s</text>
<text x="994.0" y="508.0" font-family="Inter, Arial, sans-serif" font-size="13" font-weight="400" fill="#111827">length: 4384.5 m (+0.4%)</text>
<text x="994.0" y="532.0" font-family="Inter, Arial, sans-serif" font-size="13" font-weight="400" fill="#111827">shape fit: skipped because pit geometry is not representative</text>
<text x="994.0" y="556.0" font-family="Inter, Arial, sans-serif" font-size="13" font-weight="400" fill="#f97316">reason: pit_lap | warning: fastf1_inaccurate</text>
<line x1="586" y1="622" x2="636" y2="622" stroke="#94a3b8" stroke-width="4" stroke-linecap="round"/>
<text x="646.0" y="627.0" font-family="Inter, Arial, sans-serif" font-size="13" font-weight="400" fill="#475569">oracle GPS</text>
<line x1="742" y1="622" x2="792" y2="622" stroke="#059669" stroke-width="4" stroke-linecap="round"/>
<text x="802.0" y="627.0" font-family="Inter, Arial, sans-serif" font-size="13" font-weight="400" fill="#475569">FastF1 trace</text>
</svg>